SolveFromPy_states
version=1
nRows=4
nColumns=195
inDegrees=yes

# SIMM Motion File Header:
name SolveFromPy_states
datacolumns 195
datarows 4
otherdata 1
range 0.36346117 0.36405469
endheader
time	/jointset/ground_platform/platform_rx/value	/jointset/ground_platform/platform_rx/speed	/jointset/ground_platform/platform_ry/value	/jointset/ground_platform/platform_ry/speed	/jointset/ground_platform/platform_rz/value	/jointset/ground_platform/platform_rz/speed	/jointset/ground_platform/platform_ty/value	/jointset/ground_platform/platform_ty/speed	/jointset/ground_pelvis/pelvis_tilt/value	/jointset/ground_pelvis/pelvis_tilt/speed	/jointset/ground_pelvis/pelvis_list/value	/jointset/ground_pelvis/pelvis_list/speed	/jointset/ground_pelvis/pelvis_rotation/value	/jointset/ground_pelvis/pelvis_rotation/speed	/jointset/ground_pelvis/pelvis_tx/value	/jointset/ground_pelvis/pelvis_tx/speed	/jointset/ground_pelvis/pelvis_ty/value	/jointset/ground_pelvis/pelvis_ty/speed	/jointset/ground_pelvis/pelvis_tz/value	/jointset/ground_pelvis/pelvis_tz/speed	/jointset/hip_r/hip_flexion_r/value	/jointset/hip_r/hip_flexion_r/speed	/jointset/hip_r/hip_adduction_r/value	/jointset/hip_r/hip_adduction_r/speed	/jointset/hip_r/hip_rotation_r/value	/jointset/hip_r/hip_rotation_r/speed	/jointset/knee_r/knee_angle_r/value	/jointset/knee_r/knee_angle_r/speed	/jointset/ankle_r/ankle_angle_r/value	/jointset/ankle_r/ankle_angle_r/speed	/jointset/subtalar_r/subtalar_angle_r/value	/jointset/subtalar_r/subtalar_angle_r/speed	/jointset/mtp_r/mtp_angle_r/value	/jointset/mtp_r/mtp_angle_r/speed	/jointset/hip_l/hip_flexion_l/value	/jointset/hip_l/hip_flexion_l/speed	/jointset/hip_l/hip_adduction_l/value	/jointset/hip_l/hip_adduction_l/speed	/jointset/hip_l/hip_rotation_l/value	/jointset/hip_l/hip_rotation_l/speed	/jointset/knee_l/knee_angle_l/value	/jointset/knee_l/knee_angle_l/speed	/jointset/ankle_l/ankle_angle_l/value	/jointset/ankle_l/ankle_angle_l/speed	/jointset/subtalar_l/subtalar_angle_l/value	/jointset/subtalar_l/subtalar_angle_l/speed	/jointset/mtp_l/mtp_angle_l/value	/jointset/mtp_l/mtp_angle_l/speed	/jointset/back/lumbar_extension/value	/jointset/back/lumbar_extension/speed	/jointset/back/lumbar_bending/value	/jointset/back/lumbar_bending/speed	/jointset/back/lumbar_rotation/value	/jointset/back/lumbar_rotation/speed	/forceset/glut_med1_r/activation	/forceset/glut_med1_r/fiber_length	/forceset/glut_med2_r/activation	/forceset/glut_med2_r/fiber_length	/forceset/glut_med3_r/activation	/forceset/glut_med3_r/fiber_length	/forceset/bifemlh_r/activation	/forceset/bifemlh_r/fiber_length	/forceset/bifemsh_r/activation	/forceset/bifemsh_r/fiber_length	/forceset/sar_r/activation	/forceset/sar_r/fiber_length	/forceset/add_mag2_r/activation	/forceset/add_mag2_r/fiber_length	/forceset/tfl_r/activation	/forceset/tfl_r/fiber_length	/forceset/pect_r/activation	/forceset/pect_r/fiber_length	/forceset/grac_r/activation	/forceset/grac_r/fiber_length	/forceset/glut_max1_r/activation	/forceset/glut_max1_r/fiber_length	/forceset/glut_max2_r/activation	/forceset/glut_max2_r/fiber_length	/forceset/glut_max3_r/activation	/forceset/glut_max3_r/fiber_length	/forceset/iliacus_r/activation	/forceset/iliacus_r/fiber_length	/forceset/psoas_r/activation	/forceset/psoas_r/fiber_length	/forceset/quad_fem_r/activation	/forceset/quad_fem_r/fiber_length	/forceset/gem_r/activation	/forceset/gem_r/fiber_length	/forceset/peri_r/activation	/forceset/peri_r/fiber_length	/forceset/rect_fem_r/activation	/forceset/rect_fem_r/fiber_length	/forceset/vas_int_r/activation	/forceset/vas_int_r/fiber_length	/forceset/med_gas_r/activation	/forceset/med_gas_r/fiber_length	/forceset/lat_gas_r/activation	/forceset/lat_gas_r/fiber_length	/forceset/soleus_r/activation	/forceset/soleus_r/fiber_length	/forceset/tib_post_r/activation	/forceset/tib_post_r/fiber_length	/forceset/flex_dig_r/activation	/forceset/flex_dig_r/fiber_length	/forceset/flex_hal_r/activation	/forceset/flex_hal_r/fiber_length	/forceset/tib_ant_r/activation	/forceset/tib_ant_r/fiber_length	/forceset/per_brev_r/activation	/forceset/per_brev_r/fiber_length	/forceset/per_long_r/activation	/forceset/per_long_r/fiber_length	/forceset/per_tert_r/activation	/forceset/per_tert_r/fiber_length	/forceset/ext_dig_r/activation	/forceset/ext_dig_r/fiber_length	/forceset/ext_hal_r/activation	/forceset/ext_hal_r/fiber_length	/forceset/glut_med1_l/activation	/forceset/glut_med1_l/fiber_length	/forceset/glut_med2_l/activation	/forceset/glut_med2_l/fiber_length	/forceset/glut_med3_l/activation	/forceset/glut_med3_l/fiber_length	/forceset/bifemlh_l/activation	/forceset/bifemlh_l/fiber_length	/forceset/bifemsh_l/activation	/forceset/bifemsh_l/fiber_length	/forceset/sar_l/activation	/forceset/sar_l/fiber_length	/forceset/add_mag2_l/activation	/forceset/add_mag2_l/fiber_length	/forceset/tfl_l/activation	/forceset/tfl_l/fiber_length	/forceset/pect_l/activation	/forceset/pect_l/fiber_length	/forceset/grac_l/activation	/forceset/grac_l/fiber_length	/forceset/glut_max1_l/activation	/forceset/glut_max1_l/fiber_length	/forceset/glut_max2_l/activation	/forceset/glut_max2_l/fiber_length	/forceset/glut_max3_l/activation	/forceset/glut_max3_l/fiber_length	/forceset/iliacus_l/activation	/forceset/iliacus_l/fiber_length	/forceset/psoas_l/activation	/forceset/psoas_l/fiber_length	/forceset/quad_fem_l/activation	/forceset/quad_fem_l/fiber_length	/forceset/gem_l/activation	/forceset/gem_l/fiber_length	/forceset/peri_l/activation	/forceset/peri_l/fiber_length	/forceset/rect_fem_l/activation	/forceset/rect_fem_l/fiber_length	/forceset/vas_int_l/activation	/forceset/vas_int_l/fiber_length	/forceset/med_gas_l/activation	/forceset/med_gas_l/fiber_length	/forceset/lat_gas_l/activation	/forceset/lat_gas_l/fiber_length	/forceset/soleus_l/activation	/forceset/soleus_l/fiber_length	/forceset/tib_post_l/activation	/forceset/tib_post_l/fiber_length	/forceset/flex_dig_l/activation	/forceset/flex_dig_l/fiber_length	/forceset/flex_hal_l/activation	/forceset/flex_hal_l/fiber_length	/forceset/tib_ant_l/activation	/forceset/tib_ant_l/fiber_length	/forceset/per_brev_l/activation	/forceset/per_brev_l/fiber_length	/forceset/per_long_l/activation	/forceset/per_long_l/fiber_length	/forceset/per_tert_l/activation	/forceset/per_tert_l/fiber_length	/forceset/ext_dig_l/activation	/forceset/ext_dig_l/fiber_length	/forceset/ext_hal_l/activation	/forceset/ext_hal_l/fiber_length	/forceset/ercspn_r/activation	/forceset/ercspn_r/fiber_length	/forceset/ercspn_l/activation	/forceset/ercspn_l/fiber_length	/forceset/intobl_r/activation	/forceset/intobl_r/fiber_length	/forceset/intobl_l/activation	/forceset/intobl_l/fiber_length	/forceset/extobl_r/activation	/forceset/extobl_r/fiber_length	/forceset/extobl_l/activation	/forceset/extobl_l/fiber_length
      0.36346117	     20.00000000	     -0.00000000	      0.00000000	      0.00000000	     -0.00000000	     -0.00000000	      0.25000000	      0.00000000	     -6.84045165	      3.37718929	     -0.00761007	     58.54814746	     -0.28009813	     52.90331586	      0.04977900	      0.13753593	      1.02988917	     -3.74338359	      0.00607137	      0.09578211	     27.46981722	     64.11156490	      3.79293648	     37.60223945	      4.17962574	   -385.96560905	    -78.12154758	  -2251.97012226	    313.62224283	   7060.28425592	      3.38864051	  -1143.49078487	      0.00000000	      0.00000000	    -19.99999998	      0.00000000	     10.00000028	     -0.00000000	      4.99999985	      0.00000000	   -119.99999986	      0.00000000	     11.49999977	     -0.00000000	     -0.03000064	     -0.00000000	     -0.00000000	      0.00000000	     -6.19377657	     17.41179906	     -0.97454355	    -85.17256474	      2.08600012	    -64.05512862	     -0.02135343	      0.04805949	     -0.02135343	      0.08933042	     -0.02135343	      0.07407834	     -0.02135343	      0.08827595	     -0.02135343	      0.14903023	     -0.02135343	      0.42956089	     -0.02135343	      0.08172744	     -0.02135343	      0.10057321	     -0.02135343	      0.05812046	     -0.02135343	      0.28140141	     -0.02135343	      0.09787727	     -0.02135343	      0.10891767	     -0.02135343	      0.12426675	     -0.02135343	      0.09055582	     -0.02135343	      0.08495466	     -0.02135343	      0.05108617	     -0.02135343	      0.02821686	     -0.02135343	      0.02880926	     -0.02135343	      0.13642850	     -0.02135343	      0.12152587	     -0.02135343	      0.08684467	     -0.02135343	      0.06185848	     -0.02135343	      0.07720150	     -0.02135343	      0.03029377	     -0.02135343	      0.03201228	     -0.02135343	      0.04138683	     -0.02135343	      0.10920447	     -0.02135343	      0.04624496	     -0.02135343	      0.04749297	     -0.02135343	      0.10005391	     -0.02135343	      0.12335235	     -0.02135343	      0.13180333	     -0.02135343	      0.04646954	     -0.02135343	      0.07924345	     -0.02135343	      0.06066849	     -0.02135343	      0.02207317	     -0.02135343	      0.12238178	     -0.02135343	      0.45556126	     -0.02135343	      0.05828642	     -0.02135343	      0.13391495	     -0.02135343	      0.07307389	     -0.02135343	      0.24301553	     -0.02135343	      0.06638073	     -0.02135343	      0.06554424	     -0.02135343	      0.05770037	     -0.02135343	      0.11895704	     -0.02135343	      0.11276383	     -0.02135343	      0.04385542	     -0.02135343	      0.02477863	     -0.02135343	      0.02332647	     -0.02135343	      0.18252185	     -0.02135343	      0.13945923	     -0.02135343	      0.06773760	     -0.02135343	      0.04190383	     -0.02135343	      0.08593352	     -0.02135343	      0.03561976	     -0.02135343	      0.03422824	     -0.02135343	      0.04262411	     -0.02135343	      0.07211219	     -0.02135343	      0.05030461	     -0.02135343	      0.05155980	     -0.02135343	      0.07464108	     -0.02135343	      0.08888362	     -0.02135343	      0.09641129	     -0.02135343	      0.12430607	     -0.02135343	      0.12383584	     -0.02135343	      0.09591784	     -0.02135343	      0.09029384	     -0.02135343	      0.12595255	     -0.02135343	      0.12663089
      0.36365448	     20.00000000	     -0.00000000	      0.00000000	      0.00000000	     -0.00000000	     -0.00000000	      0.25000000	      0.00000000	     -6.83979245	      3.44322833	      0.00376013	     59.08358814	     -0.26971242	     54.54139372	      0.04980601	      0.14190445	      1.02916530	     -3.74578441	      0.00608955	      0.09227405	     27.48087655	     50.31732661	      3.79994756	     34.94839241	      4.10460676	   -390.15326817	    -78.55503163	  -2232.82967677	    314.98758582	   7065.41706240	      3.16730241	  -1146.29210908	      0.00000000	      0.00000000	    -19.99999998	      0.00000000	     10.00000028	     -0.00000000	      4.99999985	      0.00000000	   -119.99999986	      0.00000000	     11.49999977	     -0.00000000	     -0.03000064	     -0.00000000	     -0.00000000	      0.00000000	     -6.19036972	     17.83326035	     -0.99104410	    -85.53773937	      2.07345373	    -65.74312208	     -0.02137831	      0.04811149	     -0.02137831	      0.08935390	     -0.02137831	      0.07407919	     -0.02137831	      0.08822169	     -0.02137831	      0.14894412	     -0.02137831	      0.42939727	     -0.02137831	      0.08173220	     -0.02137831	      0.10058239	     -0.02137831	      0.05807069	     -0.02137831	      0.28122620	     -0.02137831	      0.09788507	     -0.02137831	      0.10892179	     -0.02137831	      0.12426980	     -0.02137831	      0.09050604	     -0.02137831	      0.08490488	     -0.02137831	      0.05105929	     -0.02137831	      0.02817956	     -0.02137831	      0.02880725	     -0.02137831	      0.13663836	     -0.02137831	      0.12172888	     -0.02137831	      0.08679987	     -0.02137831	      0.06182662	     -0.02137831	      0.07716168	     -0.02137831	      0.03027834	     -0.02137831	      0.03199535	     -0.02137831	      0.04136542	     -0.02137831	      0.10872671	     -0.02137831	      0.04622162	     -0.02137831	      0.04746858	     -0.02137831	      0.09952700	     -0.02137831	      0.12277357	     -0.02137831	      0.13124594	     -0.02137831	      0.04646954	     -0.02137831	      0.07924345	     -0.02137831	      0.06066849	     -0.02137831	      0.02207317	     -0.02137831	      0.12238178	     -0.02137831	      0.45556126	     -0.02137831	      0.05828642	     -0.02137831	      0.13391495	     -0.02137831	      0.07307389	     -0.02137831	      0.24301553	     -0.02137831	      0.06638073	     -0.02137831	      0.06554424	     -0.02137831	      0.05770037	     -0.02137831	      0.11895704	     -0.02137831	      0.11276383	     -0.02137831	      0.04385542	     -0.02137831	      0.02477863	     -0.02137831	      0.02332647	     -0.02137831	      0.18252185	     -0.02137831	      0.13945923	     -0.02137831	      0.06773760	     -0.02137831	      0.04190383	     -0.02137831	      0.08593352	     -0.02137831	      0.03561976	     -0.02137831	      0.03422825	     -0.02137831	      0.04262413	     -0.02137831	      0.07211219	     -0.02137831	      0.05030461	     -0.02137831	      0.05155980	     -0.02137831	      0.07464108	     -0.02137831	      0.08888362	     -0.02137831	      0.09641129	     -0.02137831	      0.12431645	     -0.02137831	      0.12382069	     -0.02137831	      0.09593995	     -0.02137831	      0.09027628	     -0.02137831	      0.12597952	     -0.02137831	      0.12661181
      0.36384779	     20.00000000	     -0.00000000	      0.00000000	      0.00000000	     -0.00000000	     -0.00000000	      0.25000000	      0.00000000	     -6.83912017	      3.51279192	      0.01523050	     59.58378757	     -0.25901375	     56.14133414	      0.04983386	      0.14620258	      1.02844098	     -3.74808695	      0.00610705	      0.08880958	     27.48927304	     36.56047952	      3.80645381	     32.38011215	      4.02879720	   -394.14297904	    -78.98478157	  -2213.33213338	    316.35378917	   7069.19063060	      2.94553843	  -1147.88141312	      0.00000000	      0.00000000	    -19.99999998	      0.00000000	     10.00000028	     -0.00000000	      4.99999985	      0.00000000	   -119.99999986	      0.00000000	     11.49999977	     -0.00000000	     -0.03000064	     -0.00000000	     -0.00000000	      0.00000000	     -6.18688289	     18.23910083	     -1.00761155	    -85.86358666	      2.06058533	    -67.38681525	     -0.02140320	      0.04816362	     -0.02140320	      0.08937653	     -0.02140320	      0.07407952	     -0.02140320	      0.08816744	     -0.02140320	      0.14885800	     -0.02140320	      0.42923715	     -0.02140320	      0.08173623	     -0.02140320	      0.10059575	     -0.02140320	      0.05802091	     -0.02140320	      0.28105098	     -0.02140320	      0.09789172	     -0.02140320	      0.10892490	     -0.02140320	      0.12427184	     -0.02140320	      0.09045627	     -0.02140320	      0.08485510	     -0.02140320	      0.05103241	     -0.02140320	      0.02814159	     -0.02140320	      0.02880469	     -0.02140320	      0.13684672	     -0.02140320	      0.12196874	     -0.02140320	      0.08675507	     -0.02140320	      0.06179477	     -0.02140320	      0.07712186	     -0.02140320	      0.03026291	     -0.02140320	      0.03197843	     -0.02140320	      0.04134402	     -0.02140320	      0.10825796	     -0.02140320	      0.04621023	     -0.02140320	      0.04744419	     -0.02140320	      0.09898705	     -0.02140320	      0.12218917	     -0.02140320	      0.13068202	     -0.02140320	      0.04646954	     -0.02140320	      0.07924345	     -0.02140320	      0.06066849	     -0.02140320	      0.02207317	     -0.02140320	      0.12238178	     -0.02140320	      0.45556126	     -0.02140320	      0.05828642	     -0.02140320	      0.13391495	     -0.02140320	      0.07307389	     -0.02140320	      0.24301553	     -0.02140320	      0.06638073	     -0.02140320	      0.06554424	     -0.02140320	      0.05770037	     -0.02140320	      0.11895704	     -0.02140320	      0.11276383	     -0.02140320	      0.04385542	     -0.02140320	      0.02477863	     -0.02140320	      0.02332647	     -0.02140320	      0.18252185	     -0.02140320	      0.13945923	     -0.02140320	      0.06773760	     -0.02140320	      0.04190383	     -0.02140320	      0.08593352	     -0.02140320	      0.03561976	     -0.02140320	      0.03422827	     -0.02140320	      0.04262415	     -0.02140320	      0.07211219	     -0.02140320	      0.05030461	     -0.02140320	      0.05155980	     -0.02140320	      0.07464108	     -0.02140320	      0.08888362	     -0.02140320	      0.09641129	     -0.02140320	      0.12432687	     -0.02140320	      0.12380536	     -0.02140320	      0.09596204	     -0.02140320	      0.09025882	     -0.02140320	      0.12600684	     -0.02140320	      0.12659249
      0.36405469	     20.00000000	     -0.00000000	      0.00000000	      0.00000000	     -0.00000000	     -0.00000000	      0.25000000	      0.00000000	     -6.83838539	      3.58998242	      0.02761073	     60.08323775	     -0.24722448	     57.81112657	      0.04986458	      0.15071918	      1.02766524	     -3.75045571	      0.00612505	      0.08515492	     27.49531926	     21.89963428	      3.81287715	     29.72667643	      3.94682596	   -398.18578034	    -79.44053512	  -2192.12256741	    317.81671883	   7071.88322685	      2.70798346	  -1148.18284377	      0.00000000	      0.00000000	    -19.99999998	      0.00000000	     10.00000028	     -0.00000000	      4.99999985	      0.00000000	   -119.99999986	      0.00000000	     11.49999977	     -0.00000000	     -0.03000064	     -0.00000000	     -0.00000000	      0.00000000	     -6.18306567	     18.65714319	     -1.02540948	    -86.17299783	      2.04646506	    -69.09717867	     -0.02142984	      0.04821952	     -0.02142984	      0.08939990	     -0.02142984	      0.07407918	     -0.02142984	      0.08810936	     -0.02142984	      0.14876583	     -0.02142984	      0.42906971	     -0.02142984	      0.08173980	     -0.02142984	      0.10061774	     -0.02142984	      0.05796763	     -0.02142984	      0.28086344	     -0.02142984	      0.09789764	     -0.02142984	      0.10892721	     -0.02142984	      0.12427306	     -0.02142984	      0.09040299	     -0.02142984	      0.08480183	     -0.02142984	      0.05100364	     -0.02142984	      0.02810023	     -0.02142984	      0.02880123	     -0.02142984	      0.13706811	     -0.02142984	      0.12218774	     -0.02142984	      0.08670712	     -0.02142984	      0.06176067	     -0.02142984	      0.07707924	     -0.02142984	      0.03024640	     -0.02142984	      0.03196031	     -0.02142984	      0.04132111	     -0.02142984	      0.10778460	     -0.02142984	      0.04620431	     -0.02142984	      0.04741808	     -0.02142984	      0.09840260	     -0.02142984	      0.12155797	     -0.02142984	      0.13007162	     -0.02142984	      0.04646954	     -0.02142984	      0.07924345	     -0.02142984	      0.06066849	     -0.02142984	      0.02207317	     -0.02142984	      0.12238178	     -0.02142984	      0.45556126	     -0.02142984	      0.05828642	     -0.02142984	      0.13391495	     -0.02142984	      0.07307389	     -0.02142984	      0.24301553	     -0.02142984	      0.06638073	     -0.02142984	      0.06554424	     -0.02142984	      0.05770037	     -0.02142984	      0.11895704	     -0.02142984	      0.11276383	     -0.02142984	      0.04385542	     -0.02142984	      0.02477863	     -0.02142984	      0.02332647	     -0.02142984	      0.18252185	     -0.02142984	      0.13945923	     -0.02142984	      0.06773760	     -0.02142984	      0.04190383	     -0.02142984	      0.08593352	     -0.02142984	      0.03561976	     -0.02142984	      0.03422829	     -0.02142984	      0.04262417	     -0.02142984	      0.07211219	     -0.02142984	      0.05030461	     -0.02142984	      0.05155980	     -0.02142984	      0.07464108	     -0.02142984	      0.08888362	     -0.02142984	      0.09641129	     -0.02142984	      0.12433807	     -0.02142984	      0.12378876	     -0.02142984	      0.09598566	     -0.02142984	      0.09024028	     -0.02142984	      0.12603648	     -0.02142984	      0.12657155
